<svg width="35" height="33" viewBox="0 0 35 33" fill="none" xmlns="http://www.w3.org/2000/svg">
<path fill-rule="evenodd" clip-rule="evenodd" d="M10.2253 30.1911V18.9063C10.2253 18.6905 10.2763 18.4809 10.3703 18.2891C10.4644 18.0972 10.6026 17.9231 10.7759 17.7789C10.9326 17.6478 11.1197 17.5412 11.3295 17.4688C11.5265 17.4009 11.7437 17.3627 11.9745 17.3627H23.2722C23.3886 17.3627 23.4997 17.3692 23.6054 17.3831C23.7117 17.3969 23.8134 17.4189 23.9109 17.4491C24.0144 17.4813 24.112 17.5234 24.2033 17.5761C24.2948 17.6288 24.3804 17.6926 24.4601 17.7677C24.533 17.8365 24.6126 17.9218 24.687 18.0189C24.7501 18.1015 24.8106 18.1935 24.8614 18.292C24.9105 18.3873 24.9519 18.4899 24.98 18.5975C25.0063 18.6971 25.0213 18.8008 25.0213 18.9063V30.1912C25.0213 30.4079 24.9831 30.6078 24.9169 30.788C24.8445 30.9852 24.7385 31.158 24.6128 31.3021C24.4726 31.4629 24.3054 31.5891 24.1308 31.6758C23.947 31.7671 23.7539 31.8154 23.5734 31.8154H11.6731C11.4934 31.8154 11.2998 31.7669 11.1156 31.6753C10.9411 31.5886 10.7737 31.4623 10.6333 31.3013C10.5078 31.1573 10.4018 30.9847 10.3294 30.7874C10.2634 30.6075 10.2252 30.4077 10.2252 30.1911H10.2253ZM17.6234 22.8439C17.8402 22.8439 18.0229 22.904 18.1694 23.0037C18.3344 23.1155 18.4529 23.277 18.5241 23.4589C18.5495 23.5239 18.5688 23.5908 18.5813 23.6578C18.5942 23.7263 18.6008 23.7956 18.6008 23.8635C18.6008 23.9314 18.5942 24.0006 18.5813 24.0691C18.5688 24.1361 18.5495 24.203 18.5241 24.268C18.4529 24.45 18.3346 24.6114 18.1695 24.7232C18.0226 24.8229 17.8402 24.883 17.6234 24.883C17.4067 24.883 17.2242 24.8229 17.0773 24.7232C16.9123 24.6113 16.7938 24.4499 16.7226 24.268C16.6972 24.203 16.6779 24.136 16.6654 24.0691C16.6525 24.0006 16.646 23.9313 16.646 23.8635C16.646 23.7955 16.6525 23.7263 16.6654 23.6578C16.6779 23.5908 16.6972 23.5239 16.7226 23.4589C16.7938 23.2769 16.9121 23.1155 17.0772 23.0037C17.2241 22.904 17.4065 22.8439 17.6234 22.8439ZM15.456 23.7426C15.456 23.9659 15.4725 24.1674 15.5063 24.3494C15.5398 24.5294 15.5904 24.6923 15.6587 24.8409C15.7267 24.9889 15.814 25.1269 15.921 25.2578C16.0297 25.3907 16.1594 25.5174 16.3105 25.6408C16.3803 25.6977 16.4353 25.7348 16.4853 25.7627C16.5376 25.792 16.582 25.8107 16.6317 25.8316L16.6335 25.8321C16.7126 25.8654 16.8016 25.9028 16.8916 25.9491L17.1129 26.0631V26.322C17.1129 26.4216 17.1068 26.5701 17.1004 26.7239L17.0996 26.7429C17.0948 26.8662 17.0894 26.9941 17.0894 27.162C17.0894 27.4127 17.1104 27.6557 17.2008 27.8268C17.2826 27.9815 17.4326 28.083 17.6985 28.083C17.7321 28.083 17.7681 28.074 17.8039 28.0583C17.8479 28.0393 17.8915 28.0107 17.9325 27.9759C17.9801 27.9355 18.0221 27.8891 18.0549 27.8413C18.0853 27.7967 18.1077 27.751 18.1189 27.709C18.167 27.5279 18.1537 27.0646 18.1431 26.696C18.1322 26.5811 18.1365 26.4399 18.1336 26.3219V26.0633L18.3564 25.9489C18.412 25.9204 18.4596 25.8979 18.5016 25.8791L18.6166 25.8298C18.6623 25.8108 18.7034 25.7936 18.7482 25.7695C18.7905 25.7472 18.8382 25.7162 18.9005 25.6683C19.1117 25.5051 19.2857 25.3128 19.4223 25.1023C19.5659 24.8811 19.6687 24.6398 19.7301 24.3914C19.7804 24.1883 19.8037 23.9796 19.8002 23.7735C19.7966 23.5684 19.766 23.3644 19.7088 23.1689C19.6514 22.972 19.5662 22.7837 19.454 22.6116C19.3463 22.4459 19.2127 22.2943 19.054 22.1639C18.8603 22.0046 18.6266 21.8752 18.354 21.7874C18.0968 21.7047 17.8031 21.6586 17.4727 21.6586C17.2099 21.6586 16.9536 21.717 16.7173 21.8218C16.4711 21.931 16.2451 22.0913 16.0546 22.2888C15.8671 22.483 15.714 22.7137 15.6099 22.967C15.5114 23.2068 15.456 23.4689 15.456 23.7423L15.456 23.7426ZM13.1626 15.1177C13.1626 14.5759 13.2153 14.0685 13.3197 13.598C13.4245 13.1255 13.5821 12.6895 13.7916 12.2927C14.0026 11.8927 14.2652 11.5348 14.5779 11.2221C14.889 10.9112 15.2507 10.6437 15.6612 10.4223C16.0714 10.2011 16.5235 10.0605 16.9892 9.99681C17.4689 9.93118 17.9635 9.94703 18.4425 10.0401C18.9198 10.1327 19.3842 10.3023 19.8051 10.5441C20.21 10.7767 20.5757 11.0764 20.8752 11.4391C21.1534 11.7757 21.3687 12.1052 21.5349 12.4401C21.7013 12.7759 21.8186 13.1173 21.9008 13.4774C21.981 13.8295 22.027 14.1933 22.0526 14.5836C22.0782 14.9741 22.0839 15.3882 22.0839 15.8432V16.2583H13.1626V15.1177ZM12.1419 14.2311V16.2584H11.7484C11.361 16.2584 11.0079 16.337 10.6965 16.4827C10.3758 16.6326 10.0973 16.8544 9.86946 17.1349C9.63219 17.427 9.44626 17.7849 9.32028 18.1941C9.19543 18.5994 9.1292 19.0562 9.1292 19.5512V23.3518C8.76806 23.3518 8.40667 23.3509 8.04567 23.3542C5.37026 23.378 3.03408 23.3986 1.60232 20.2985C1.55236 20.1902 1.50452 20.0756 1.45933 19.956C1.4154 19.84 1.37491 19.7205 1.33818 19.5989C1.15669 18.9986 1.08371 18.3792 1.1119 17.7695C1.14041 17.1466 1.2746 16.5331 1.50585 15.9596C1.73961 15.3797 2.07269 14.8399 2.49655 14.3715C2.90333 13.9217 3.39402 13.5374 3.96033 13.2462C4.07142 13.1892 4.19032 13.1338 4.31643 13.0808C4.43633 13.0304 4.56131 12.983 4.69067 12.9396C5.19492 12.77 5.60693 12.7521 5.95212 12.7373L5.95701 12.7367C6.14446 12.7291 6.30511 12.7219 6.42884 12.682C6.53775 12.6469 6.62476 12.5817 6.68887 12.4562C6.72626 12.383 6.74491 12.3286 6.75385 12.2794C6.76318 12.228 6.76384 12.1759 6.76417 12.1141C6.76457 12.0579 6.76516 11.9963 6.76781 11.9326C6.77059 11.8621 6.77601 11.7862 6.78534 11.7053L6.83986 11.1951C6.86223 10.9709 6.88452 10.7475 6.9137 10.5194C6.94301 10.2888 6.97881 10.0572 7.02705 9.82457C7.10558 9.44555 7.20199 9.07392 7.31493 8.71164C7.42867 8.347 7.56067 7.98884 7.70915 7.63907C8.19255 6.50002 8.8472 5.47464 9.63404 4.59455C10.4315 3.70272 11.3657 2.95904 12.3959 2.39738C13.4403 1.82803 14.585 1.44481 15.7872 1.28277C16.9407 1.12736 18.1468 1.17504 19.3674 1.45661C19.7413 1.54276 20.1204 1.65251 20.5031 1.78649C20.877 1.91725 21.2513 2.07057 21.6239 2.24664C21.8489 2.3529 22.084 2.50049 22.3043 2.63901C22.3453 2.65632 22.4434 2.72516 22.488 2.75288C22.9751 3.05225 23.4492 3.41829 23.897 3.83397C24.3521 4.25615 24.781 4.7311 25.1696 5.24055C25.557 5.74853 25.9046 6.29176 26.1985 6.85238C26.4853 7.39967 26.7215 7.96517 26.8942 8.53201C26.9573 8.73901 27.0092 8.90587 27.061 9.03161C27.1077 9.14506 27.1539 9.22577 27.2089 9.27548C27.2666 9.32672 27.3516 9.36442 27.4765 9.39346C27.6147 9.42572 27.799 9.44659 28.0427 9.4623C28.1889 9.47166 28.335 9.48695 28.4801 9.50761C28.6282 9.52877 28.7725 9.55544 28.9128 9.58685C29.6443 9.75078 30.3344 10.0589 30.9549 10.4856C31.5821 10.917 32.1381 11.47 32.5935 12.1182C33.0556 12.7757 33.4154 13.5325 33.6418 14.3604C33.8574 15.1486 33.9524 16.0012 33.9009 16.8941C33.8894 17.0925 33.8706 17.2935 33.8442 17.4968C33.8181 17.6988 33.7847 17.9006 33.7445 18.1006C33.5939 18.8486 33.3108 19.5498 32.9214 20.181C32.522 20.8281 32.0108 21.4016 31.4161 21.8759C30.8274 22.3454 30.1555 22.7192 29.4283 22.9731C28.7258 23.2181 27.9708 23.3518 27.1887 23.3518H26.1174V19.5512C26.1174 19.0573 26.0511 18.6003 25.9259 18.1944C25.7998 17.7854 25.6139 17.4271 25.3761 17.1345C25.1486 16.8544 24.8705 16.6325 24.5494 16.4825C24.2385 16.3371 23.8859 16.2584 23.4981 16.2584H23.1047V15.8432C23.1047 15.2536 23.1022 14.7265 23.0728 14.2482C23.0434 13.7703 22.9873 13.3347 22.8807 12.9236C22.7757 12.5187 22.6189 12.1265 22.3863 11.7262C22.1524 11.3234 21.8416 10.9122 21.4297 10.4709L21.3548 10.3905C21.126 10.1443 21.0155 10.0256 20.7218 9.81955C20.5644 9.70917 20.4151 9.61003 20.2713 9.52283C20.1259 9.43451 19.9811 9.35486 19.8333 9.28392C19.6865 9.21348 19.5355 9.15043 19.3762 9.09451C19.2173 9.03873 19.0474 8.98902 18.8622 8.94497C18.7879 8.92723 18.6923 8.90741 18.5855 8.88758C18.475 8.86705 18.3571 8.84695 18.2422 8.82935C18.129 8.81204 18.0174 8.79647 17.9168 8.78474C17.8226 8.77371 17.7385 8.76554 17.6723 8.76198C17.4604 8.75025 17.2281 8.76638 16.9863 8.80485C16.7258 8.84625 16.4562 8.91327 16.1903 8.99887C15.9043 9.09102 15.6209 9.20517 15.3547 9.33314C15.085 9.46272 14.8324 9.6071 14.6125 9.7572C14.3301 9.94955 14.2251 10.0534 14.0321 10.2445L13.8745 10.3996C13.6286 10.639 13.3939 10.922 13.181 11.2332C12.9684 11.5443 12.7768 11.8846 12.6176 12.2387C12.4665 12.575 12.3448 12.9233 12.2622 13.2698C12.1847 13.5954 12.1418 13.9198 12.1418 14.2311H12.1419ZM5.34637 11.6638C4.96565 11.6638 4.59334 11.7264 4.23419 11.8387C3.84646 11.9599 3.4719 12.1398 3.11764 12.362C2.72535 12.6079 2.3574 12.906 2.02201 13.2346C1.65948 13.5898 1.33421 13.9813 1.05638 14.3824C0.973082 14.5026 0.905394 14.6189 0.843199 14.7388C0.779084 14.862 0.720792 14.9885 0.657008 15.1269L0.550879 15.3547C0.289855 15.9082 0.124904 16.5085 0.0491441 17.1258C-0.02999 17.771 -0.0124561 18.4369 0.093806 19.0893C0.201193 19.7492 0.400021 20.3942 0.681027 20.9885C0.954556 21.5668 1.30583 22.0965 1.72651 22.5441C2.66209 23.5396 3.55143 24.0304 4.49621 24.2669C5.44932 24.5055 6.46583 24.4887 7.64272 24.4694L7.67679 24.4688C8.06671 24.4625 8.4682 24.4559 8.73571 24.4559H9.12913V24.871L9.11887 25.7778C9.10842 26.6206 9.09386 27.7756 9.1112 28.8078C9.12847 29.8295 9.17644 30.7277 9.28865 31.0684C9.37573 31.3329 9.50654 31.5946 9.67175 31.8359C9.83406 32.0731 10.0297 32.2909 10.25 32.4724C10.4513 32.6385 10.674 32.7744 10.9105 32.8667C11.1295 32.9522 11.3605 33.0002 11.5978 33.0002H23.6487C23.9628 33.0002 24.2723 32.9205 24.5597 32.7771C24.8596 32.6276 25.1363 32.4085 25.3703 32.1386C25.6028 31.8701 25.7938 31.5499 25.9244 31.1956C26.0479 30.8606 26.1174 30.4941 26.1174 30.1106V24.456H26.5109C27.061 24.456 27.5636 24.4475 28.0313 24.4132C28.4979 24.379 28.9346 24.3185 29.3564 24.215C29.7734 24.1124 30.1794 23.9667 30.5902 23.7608C31.0023 23.5541 31.4212 23.286 31.8626 22.9393L32.0029 22.8269L32.1177 22.7278L32.2288 22.6246L32.3617 22.4941C32.4062 22.4499 32.4499 22.4103 32.4923 22.3738L32.6078 22.2784C32.6523 22.2428 32.695 22.208 32.7327 22.1728C32.7701 22.1379 32.8067 22.0986 32.8424 22.0504L32.9997 21.8422L33.1352 21.6682C33.3195 21.4335 33.4975 21.2068 33.6559 20.9533C33.7208 20.849 33.7834 20.7468 33.8489 20.6359C33.9102 20.5323 33.9668 20.4336 34.0194 20.3362C34.0767 20.23 34.1295 20.1277 34.1795 20.0246C34.2319 19.9163 34.2847 19.8012 34.3395 19.6754C34.5633 19.1614 34.7302 18.6116 34.8401 18.0449C34.9526 17.4649 35.0056 16.8669 34.9994 16.2711C34.9932 15.6769 34.9276 15.0832 34.8031 14.5101C34.6815 13.9498 34.5031 13.4096 34.2692 12.9087L34.2292 12.8229C34.1805 12.7171 34.1365 12.6229 34.0803 12.5091C34.032 12.4101 33.9802 12.3111 33.9172 12.1993C33.6486 11.7224 33.5122 11.5494 33.3154 11.3001L33.3079 11.2907C33.2338 11.1969 33.1513 11.0923 33.0604 10.9716L32.0208 9.92218C31.848 9.78338 31.6929 9.66498 31.5444 9.55927C31.3957 9.45336 31.257 9.36295 31.1174 9.28092C30.9743 9.19672 30.8238 9.11713 30.6553 9.03517C30.485 8.9523 30.2988 8.86817 30.085 8.77518C29.9536 8.71793 29.8281 8.66927 29.7044 8.62682C29.5808 8.58444 29.4605 8.54862 29.339 8.51749C29.214 8.48537 29.0835 8.45647 28.9434 8.42875C28.8021 8.40075 28.6516 8.3736 28.4876 8.34553C28.2029 8.29666 28.0314 8.19319 27.9027 8.02508C27.7806 7.86555 27.7087 7.6612 27.6137 7.39122C27.5804 7.29543 27.5428 7.18903 27.4983 7.07342C27.4537 6.95739 27.4019 6.83221 27.3405 6.70102C27.2222 6.44773 27.0807 6.18055 26.9239 5.90938C26.7605 5.6274 26.5801 5.3415 26.3912 5.06259C26.2001 4.78074 25.9981 4.50371 25.7933 4.24267C25.5915 3.98547 25.3895 3.74684 25.1958 3.53837C24.4022 2.68411 23.4887 1.9745 22.5002 1.42073C21.4874 0.853334 20.396 0.44952 19.274 0.221083C18.155 -0.00665536 17.0051 -0.0606229 15.8717 0.0702117C14.7715 0.197137 13.686 0.498531 12.659 0.984029C12.4235 1.09525 12.1902 1.21233 11.9577 1.33751C11.7287 1.46073 11.5067 1.58898 11.2914 1.72387C11.0737 1.86015 10.8633 2.00264 10.6605 2.15232C10.4561 2.3032 10.2554 2.4644 10.0578 2.63768C9.95858 2.72453 9.84279 2.83533 9.73071 2.94271L9.69789 2.97398C9.56913 3.09623 9.44408 3.2152 9.31049 3.32655L7.73647 5.27944C7.48617 5.64408 7.23825 6.08951 7.00653 6.58066C6.76721 7.08794 6.54569 7.64256 6.35699 8.20632C6.17179 8.75968 6.01795 9.32162 5.9099 9.85557C5.80794 10.3594 5.74654 10.8369 5.73787 11.2568L5.72954 11.6639H5.34604L5.34637 11.6638Z" fill="#352F75"/>
</svg>
