<svg width="35" height="35" viewBox="0 0 35 35" fill="none" xmlns="http://www.w3.org/2000/svg">
<path fill-rule="evenodd" clip-rule="evenodd" d="M21.4352 11.3038H32.196C32.9699 11.3038 33.6709 11.6183 34.1786 12.126C34.6864 12.6337 35.0009 13.3356 35.0009 14.1086V28.8042C35.0009 29.5773 34.6864 30.2791 34.1786 30.7869C33.6701 31.2946 32.9691 31.6091 32.196 31.6091H21.4352V33.913H25.5496V35.0005H16.2332V33.9121H20.3477V31.6091H9.58684C8.81379 31.6091 8.11194 31.2946 7.6042 30.7869C7.09646 30.2791 6.78199 29.5781 6.78199 28.8042V15.7827H2.804C2.03095 15.7827 1.32995 15.4683 0.822213 14.9605C0.314475 14.4528 0 13.7518 0 12.9787V2.80534C0 2.03313 0.314475 1.33213 0.822213 0.823549C1.3308 0.314964 2.0318 0.000488281 2.804 0.000488281H7.32533C8.09838 0.000488281 8.79938 0.314964 9.30711 0.822701C9.81485 1.33129 10.1293 2.03229 10.1293 2.80449V5.65172H20.8901C21.0402 5.65172 21.1767 5.71275 21.275 5.81108C21.3733 5.91025 21.4343 6.04587 21.4343 6.19591V11.3046L21.4352 11.3038ZM33.4098 12.8948C33.0987 12.5846 32.669 12.3913 32.196 12.3913H21.4352V19.3157C21.7505 19.4251 22.0251 19.6251 22.2235 19.8845C22.4379 20.1642 22.5651 20.5134 22.5651 20.8923C22.5651 21.3543 22.3769 21.773 22.0743 22.0756C21.7717 22.3782 21.353 22.5664 20.891 22.5664C20.429 22.5664 20.0103 22.3782 19.7077 22.0756C19.4051 21.773 19.2169 21.3543 19.2169 20.8923C19.2169 20.5134 19.344 20.1642 19.5585 19.8845C19.7577 19.6251 20.0315 19.4251 20.3477 19.3157V12.3922H10.131V12.9787C10.131 13.673 9.87673 14.3061 9.45715 14.7935C9.05536 15.2606 8.50016 15.5937 7.87036 15.7183V25.9985H33.9133V14.1078C33.9133 13.6348 33.7209 13.2051 33.4098 12.894V12.8948ZM21.3063 20.477C21.2004 20.371 21.0537 20.3049 20.8918 20.3049C20.7299 20.3049 20.5833 20.371 20.4773 20.477C20.3714 20.5829 20.3053 20.7296 20.3053 20.8915C20.3053 21.0534 20.3714 21.2 20.4773 21.306C20.5833 21.4119 20.7299 21.4781 20.8918 21.4781C21.0537 21.4781 21.2004 21.4119 21.3063 21.306C21.4123 21.2 21.4784 21.0534 21.4784 20.8915C21.4784 20.7296 21.4123 20.5829 21.3063 20.477ZM20.3477 11.3046V6.74009H10.131V11.3046H20.3477ZM7.32617 1.08801H2.80485C2.33186 1.08801 1.90211 1.28043 1.59102 1.59151C1.27994 1.9026 1.08753 2.3315 1.08753 2.80534V11.3046H9.0435V6.74009H6.64128C6.53193 7.05626 6.33274 7.33005 6.07336 7.52925C5.79364 7.74285 5.44525 7.87085 5.06636 7.87085C4.60524 7.87085 4.18651 7.68267 3.88305 7.38006C3.57959 7.07745 3.39142 6.65872 3.39142 6.19675C3.39142 5.73479 3.57959 5.31605 3.8822 5.01345C4.18566 4.71084 4.60439 4.52266 5.06551 4.52266C5.44441 4.52266 5.79279 4.64981 6.07251 4.86426C6.33189 5.06346 6.53193 5.33724 6.64128 5.65341H9.0435V2.80618C9.0435 2.33235 8.85108 1.90345 8.54 1.59236C8.22891 1.28212 7.79916 1.08886 7.32617 1.08886V1.08801ZM5.48001 6.61125C5.58596 6.5053 5.65208 6.35865 5.65208 6.19675C5.65208 6.03485 5.58596 5.88821 5.48001 5.78141C5.37405 5.67545 5.22656 5.60934 5.06466 5.60934C4.90276 5.60934 4.75612 5.67545 4.65017 5.78141C4.54421 5.88736 4.4781 6.03401 4.4781 6.19591C4.4781 6.35781 4.54421 6.50445 4.65017 6.6104C4.75612 6.71636 4.90276 6.78247 5.06466 6.78247C5.22656 6.78247 5.37321 6.71636 5.47916 6.6104L5.48001 6.61125ZM1.08753 12.3922V12.9787C1.08753 13.4526 1.27994 13.8815 1.59102 14.1917C1.90211 14.5028 2.33186 14.6952 2.80485 14.6952H7.32617C7.79916 14.6952 8.22891 14.5028 8.54 14.1917C8.85108 13.8815 9.0435 13.4517 9.0435 12.9787V12.3922H1.08753ZM9.58768 30.5224H32.196C32.669 30.5224 33.0987 30.33 33.4098 30.0189C33.7209 29.7087 33.9133 29.2789 33.9133 28.8051V27.0877H7.87036V28.8051C7.87036 29.2789 8.06277 29.7087 8.37301 30.0189C8.6841 30.33 9.11385 30.5224 9.58768 30.5224ZM5.76736 13.5441C5.76736 13.7374 5.68853 13.9128 5.56138 14.04C5.43424 14.1671 5.25877 14.246 5.06551 14.246C4.87225 14.246 4.69594 14.1671 4.56964 14.04C4.44249 13.9128 4.36366 13.7365 4.36366 13.5441C4.36366 13.3509 4.44249 13.1745 4.56964 13.0482C4.69679 12.9211 4.87225 12.8423 5.06551 12.8423C5.25962 12.8423 5.43508 12.9211 5.56138 13.0482C5.68853 13.1754 5.76736 13.3517 5.76736 13.5441Z" fill="#352F75"/>
</svg>
