<svg width="35" height="35" viewBox="0 0 35 35" fill="none" xmlns="http://www.w3.org/2000/svg">
<path fill-rule="evenodd" clip-rule="evenodd" d="M15.8711 32.4704H19.1297C19.1297 33.6708 17.5324 34.4963 16.3852 33.5471C16.1039 33.3149 15.8711 32.9577 15.8711 32.4704ZM29.6866 19.5505C29.6866 20.0036 29.7599 19.9986 30.3551 20.3419C30.6638 20.5199 30.8954 20.6436 31.2054 20.8203C31.3663 20.9124 31.4631 20.9528 31.6135 21.0412C32.1237 21.3428 32.7333 21.5019 32.7333 20.6436C32.7333 20.3407 31.972 20.0238 31.6031 19.8194C31.119 19.5518 30.6193 19.139 30.1118 19.139C29.9417 19.139 29.6866 19.3852 29.6866 19.5493V19.5505ZM2.26874 20.6448C2.26874 22.0055 3.74174 20.8178 4.60644 20.3709C5.83088 19.7386 5.23567 19.1403 4.74772 19.1403C4.47693 19.1403 3.25641 19.9115 2.81032 20.1412C2.61018 20.2447 2.26874 20.3975 2.26874 20.6436V20.6448ZM2.26874 4.37501C2.26874 4.80921 2.74622 4.98971 3.40292 5.33176C3.61354 5.44158 4.56719 6.01588 4.74903 6.01588C5.14671 6.01588 5.31546 5.77985 5.31546 5.46934C5.31546 5.07049 5.0015 4.98718 4.70193 4.83067L2.98562 3.88149C2.64288 3.76537 2.26874 3.95975 2.26874 4.37501ZM29.6866 5.46808C29.6866 6.68864 31.4422 5.42643 32.18 5.00233C32.6051 4.75872 32.7333 4.76503 32.7333 4.37375C32.7333 4.00392 32.4311 3.77294 32.0675 3.86382L30.3459 4.80542C30.0385 4.97077 29.6866 5.05155 29.6866 5.46808ZM0.0016913 12.4405C0.0016913 12.7359 -0.0493272 13.1246 0.710718 13.1246C1.49431 13.1246 3.33228 13.319 3.33228 12.7144C3.33228 11.7804 2.6939 12.0303 0.569436 12.0303C0.310419 12.0303 0.00299947 12.2184 0.00299947 12.4405H0.0016913ZM31.6711 12.4405C31.6711 12.7359 31.6201 13.1246 32.3801 13.1246C33.1637 13.1246 35.0017 13.319 35.0017 12.7144C35.0017 11.7804 34.3633 12.0303 32.2388 12.0303C31.9798 12.0303 31.6724 12.2184 31.6724 12.4405H31.6711ZM16.9359 -0.00105469H18.2048C19.8139 0.0746777 21.4203 0.438193 22.9325 1.11474C23.6834 1.45048 24.2302 1.77739 24.8686 2.18509C25.1512 2.36558 25.4612 2.57889 25.7294 2.78968L26.5156 3.46622C27.065 4.00266 27.464 4.41035 27.9454 5.02631C28.8742 6.21531 29.5453 7.46237 29.9953 8.92779C30.1876 9.55384 30.4663 10.6002 30.4663 11.3449C30.4663 11.8233 29.9443 11.9899 29.6133 11.7614C29.3059 11.5494 29.3543 10.9978 29.2693 10.5863C29.0783 9.6687 28.9017 9.04139 28.5734 8.24998C27.931 6.69368 26.7249 4.90261 25.3356 3.85498C22.6931 1.86322 19.5339 0.622475 16.0516 1.12862C12.997 1.57292 10.6057 2.76318 8.52047 4.93543C7.69109 5.79878 7.09065 6.85272 6.56738 7.90414C5.61373 9.81638 5.38349 12.2133 5.6896 14.3338C5.89367 15.7462 6.44049 17.2344 7.18745 18.4259C10.2224 23.2728 13.3999 22.2075 13.4666 24.8089C13.5033 26.2389 12.9656 25.9057 16.9359 25.9057V17.9765C16.5474 17.8894 15.9286 17.3341 15.6199 17.3896C15.5192 17.4085 15.094 17.6156 14.92 17.6711C13.6027 18.0901 12.0892 17.945 10.832 17.4388C9.98562 17.0993 9.14708 16.3862 8.64605 15.7197C7.95273 14.7958 6.69165 12.2815 8.60027 11.6415C12.564 10.3124 16.1562 13.2054 16.1562 16.4026C16.5121 16.4834 16.5435 16.6563 16.9359 16.7446V13.2584C14.3614 11.5961 14.0265 8.16037 16.4205 5.925C17.6005 4.82436 18.6928 5.74829 19.4123 6.83505C20.8356 8.98711 20.2286 11.8624 18.0688 13.2572V16.7434C18.4612 16.655 18.4926 16.4821 18.8484 16.4013C18.8484 13.006 22.7141 10.3238 26.4581 11.6567C28.1901 12.2739 27.1579 14.5396 26.53 15.4723C26.3769 15.6995 26.2958 15.7891 26.1376 15.9823C25.405 16.8734 24.8006 16.7408 24.8006 15.9229C24.8006 15.7311 26.288 14.508 26.288 12.9151C26.288 12.366 23.1327 11.7678 21.211 13.6219C21.1024 13.7267 21.1011 13.7633 20.9899 13.887C20.8081 14.0889 20.7531 14.1508 20.5909 14.3906C20.3293 14.7756 20.1723 15.158 20.0533 15.649C20.3201 15.5897 20.8565 15.2376 21.1155 15.1025C21.6087 14.845 23.86 13.4616 24.2329 13.4616C24.5756 13.4616 24.7993 13.6775 24.7993 14.0082C24.7993 14.3881 24.1609 14.6431 23.8561 14.8071C23.223 15.1479 21.0527 16.4922 20.5478 16.6058C20.6903 16.7926 20.8709 16.7774 21.1796 16.8153C21.9828 16.9163 22.3125 16.7964 23.066 16.7105C23.8587 16.6197 23.9673 17.5663 23.1732 17.7708C22.0548 18.0573 20.5857 17.9147 19.581 17.4653C19.0094 17.2091 18.6117 17.8503 18.0688 17.9728V25.9019H21.2568C21.9253 25.9019 20.9664 24.0591 22.4904 23.0582C22.7494 22.8878 23.0856 22.7742 23.3695 22.6076C24.4919 21.9487 25.5332 21.2141 26.3796 20.2472C28.0776 18.311 28.9566 16.4505 29.3622 13.8971C29.4276 13.4844 29.5126 13.1865 29.9718 13.1865C31.3676 13.1865 29.5035 17.512 29.2628 18.0397C28.7552 19.1491 27.3267 21.1018 26.288 21.8692C26.0447 22.0484 25.821 22.2567 25.558 22.4637C24.7614 23.0897 23.3067 23.7903 23.0084 24.0377C22.179 24.7256 23.253 26.1304 21.8245 26.8599C21.8245 27.8773 21.9174 29.3793 21.8167 30.3386C21.7277 31.1754 21.0396 32.0867 20.2665 32.2609C20.2665 33.8059 19.0748 34.8245 17.7928 34.9949H17.034C16.4519 34.9153 15.8946 34.6452 15.4695 34.1555C15.0521 33.6746 14.7408 33.1192 14.7408 32.2609C13.9611 32.0855 13.2508 31.1527 13.1854 30.2755C13.1082 29.2518 13.1828 27.9177 13.1828 26.8599C12.4293 26.475 12.3377 25.9638 12.3364 24.8745C12.3338 23.7688 11.214 23.7423 10.0144 22.8764C9.21642 22.3009 8.38704 21.7089 7.76828 20.9415C7.62569 20.7648 7.54327 20.7181 7.40199 20.5426C5.37041 18.0346 4.46777 15.5784 4.46777 12.1628C4.46777 10.4349 5.07084 8.38756 5.67259 7.24022C6.379 5.89092 7.17829 4.72843 8.27715 3.66818C10.5965 1.43029 13.7257 0.144099 16.9398 -0.00610352L16.9359 -0.00105469ZM14.313 30.2136V29.7352H20.689C20.689 30.4484 20.5752 31.3761 19.4136 31.3761H15.5872C14.9213 31.3761 14.3117 30.8573 14.3117 30.2136H14.313ZM14.313 27.0001H20.689V28.6409H14.313V27.0001ZM8.7167 13.0552C8.7167 12.6601 8.85144 12.6526 9.36685 12.5213C11.9309 11.8687 14.3994 13.3708 14.9514 15.6528C14.6832 15.5922 14.2084 15.2742 13.935 15.129C13.5608 14.9321 13.2508 14.744 12.8963 14.5585C12.5614 14.383 11.0308 13.4654 10.7705 13.4654C10.2224 13.4654 9.94506 14.0927 10.5154 14.4638L12.1846 15.3827C12.5614 15.5922 14.1639 16.5439 14.4556 16.6096C14.1364 17.0299 10.849 17.3379 9.21511 14.6241C9.02673 14.3111 8.7167 13.5374 8.7167 13.0539V13.0552ZM16.9346 11.8246C15.8397 11.1177 15.5977 8.84196 16.4414 7.52043C16.567 7.32353 17.259 6.49299 17.501 6.49299C17.866 6.49299 19.0604 7.90919 19.0604 9.02245C19.0604 10.0335 18.9439 11.2591 18.0688 11.8246C18.0688 11.2099 18.0688 10.5939 18.0688 9.97921C18.0688 8.70943 18.1551 8.47466 17.3598 8.47466C16.792 8.47466 16.9346 9.57025 16.9346 9.90979C16.9346 10.5485 16.9346 11.1859 16.9346 11.8233V11.8246Z" fill="#352F75"/>
</svg>
