<svg width="33" height="33" viewBox="0 0 33 33" fill="none" xmlns="http://www.w3.org/2000/svg">
<path fill-rule="evenodd" clip-rule="evenodd" d="M15.9653 31.5304C15.9653 31.3346 15.9819 31.1995 16.1144 31.0784C16.9009 30.3629 17.5352 32.0649 16.4994 32.0649C16.2364 32.0649 15.9649 31.847 15.9649 31.5304H15.9653ZM23.3137 28.4579C23.3137 28.7557 23.043 29.059 22.7792 29.059C22.2808 29.059 22.0395 28.508 22.325 28.1384C22.6403 27.7305 23.3137 28.0215 23.3137 28.4579ZM10.2871 29.059C9.98926 29.059 9.68591 28.7884 9.68591 28.5246C9.68591 28.0368 10.2442 27.7624 10.6079 28.0691C10.9851 28.3878 10.74 29.059 10.2875 29.059H10.2871ZM30.9288 22.6462C30.9288 21.7719 32.0645 21.9244 32.0645 22.5795C32.0645 23.0639 31.4212 23.2806 31.1187 22.9908C31.0813 22.9547 30.9284 22.6836 30.9284 22.6467L30.9288 22.6462ZM0.935113 22.5795C0.935113 21.8828 2.07076 21.8471 2.07076 22.5795C2.07076 23.3039 0.935113 23.2818 0.935113 22.5795ZM10.8887 13.027L16.5805 11.5043C16.9289 11.4092 17.1749 11.3391 17.5292 11.2503C17.8644 11.1661 18.1559 11.0306 18.5043 11.023C18.5043 13.9817 18.1623 13.3338 23.0995 12.0779L26.1479 11.2515C26.4665 11.1615 26.9483 11.0714 27.1884 10.9563V22.1122H10.8887V13.027ZM5.81163 7.41593H9.88645V22.1122H5.81163V7.41593ZM5.81163 4.00899C5.81163 3.85519 5.85794 3.80846 6.01217 3.80846H9.88687V6.41369H5.81206V4.00899H5.81163ZM4.87652 3.87558V22.1122H2.93917C2.60226 20.6655 0 20.5428 0 22.7134C0 24.3172 2.57039 24.6307 2.93917 23.0473H12.8256V27.9905C11.0259 27.9905 12.0192 28.0509 11.2498 27.3617C10.6342 26.8103 9.62176 26.8651 9.10174 27.473C8.22398 28.4995 9.00189 29.9942 10.0866 29.9942C10.5688 29.9942 10.7438 30.0188 11.2256 29.6636C11.4529 29.4962 11.5549 29.2468 11.69 28.9923C13.2755 28.9923 13.8274 29.2371 13.8274 28.1239V23.0469H16.032V30.0609C14.5854 30.3978 14.483 33 16.6332 33C18.2328 33 18.5654 30.433 16.9671 30.0609V23.0469H19.1717V28.1239C19.1717 28.6618 19.2656 28.9528 19.7725 28.9928C20.2194 29.028 20.8427 28.9919 21.3096 28.9919C21.7226 29.7728 22.0047 29.9937 22.913 29.9937C23.9675 29.9937 24.7658 28.5569 23.928 27.5096C23.3982 26.8477 22.3169 26.7882 21.6814 27.4263C21.0534 28.0564 21.8755 27.9901 20.1744 27.9901V23.0469H30.0608C30.3952 24.4816 33 24.5968 33 22.4457C33 20.7922 30.4181 20.5763 30.0608 22.1118H28.1235V10.3547C28.1235 9.50963 26.9972 9.99014 26.2452 10.2132C24.4884 10.7341 22.472 11.2091 20.6702 11.7193C20.3643 11.806 19.7848 12.0018 19.5065 12.0252C19.5065 9.30017 19.9811 9.56401 16.0465 10.6359C14.5382 11.0472 12.3476 11.6853 10.8891 12.0252L10.89 4.27537C10.8955 3.48471 10.6576 2.80664 9.75347 2.80664H6.01259C5.38932 2.80664 4.87695 3.2417 4.87695 3.87558H4.87652Z" fill="#352F75"/>
<path fill-rule="evenodd" clip-rule="evenodd" d="M24.917 0.467769C24.917 1.57367 27.2439 0.0892201 30.0773 2.9226C31.1034 3.94863 31.7942 5.21343 31.9798 6.69831C32.0202 7.0229 32.0419 7.25105 32.0631 7.55058C32.1213 8.3714 33.0003 8.1611 33.0003 7.61558C33.0003 4.348 31.2291 2.03252 28.6587 0.73458C27.6696 0.235371 26.7035 0 25.3852 0C25.0733 0 24.9178 0.155923 24.9178 0.467769H24.917Z" fill="#352F75"/>
<path fill-rule="evenodd" clip-rule="evenodd" d="M24.917 2.73901C24.917 3.67837 26.6398 2.62218 28.5087 4.49155C29.9133 5.89613 29.7319 7.4953 29.836 7.77358C29.9099 7.97114 30.0544 8.0833 30.2613 8.0833C30.8769 8.0833 30.7741 7.56158 30.7312 7.07979C30.5901 5.48487 29.6151 3.88783 28.304 3.09334C27.9577 2.88346 27.6471 2.70375 27.2312 2.5627C26.78 2.40975 26.458 2.3167 25.9205 2.26912C25.4387 2.22621 24.917 2.12382 24.917 2.73901Z" fill="#352F75"/>
<path fill-rule="evenodd" clip-rule="evenodd" d="M24.9164 4.94321C24.9164 5.83244 25.8766 5.06514 26.8716 6.06059C27.1482 6.33759 27.3411 6.59038 27.4584 7.01014C27.5752 7.42735 27.4511 8.08249 27.989 8.08249C29.0626 8.08249 28.4742 5.63785 26.7442 4.78474C26.3886 4.60927 24.916 4.12833 24.916 4.94278L24.9164 4.94321Z" fill="#352F75"/>
<path d="M12.3192 14.5178H13.4192C13.6465 14.5178 13.853 14.6109 14.0021 14.76C14.1512 14.9091 14.2442 15.1156 14.2442 15.3429V16.4429C14.2442 16.6702 14.1512 16.8766 14.0021 17.0258C13.853 17.1749 13.646 17.2679 13.4192 17.2679H12.3192C12.0919 17.2679 11.8854 17.1749 11.7363 17.0258C11.5872 16.8766 11.4941 16.6697 11.4941 16.4429V15.3429C11.4941 15.1156 11.5872 14.9091 11.7363 14.76C11.8854 14.6109 12.0919 14.5178 12.3192 14.5178ZM13.4192 15.2881H12.3192C12.3043 15.2881 12.2907 15.2945 12.2806 15.3047C12.2704 15.3149 12.264 15.3285 12.264 15.3433V16.4433C12.264 16.4581 12.2704 16.4717 12.2806 16.4819C12.2907 16.4921 12.3043 16.4985 12.3192 16.4985H13.4192C13.434 16.4985 13.4476 16.4921 13.4578 16.4819C13.468 16.4717 13.4744 16.4581 13.4744 16.4433V15.3433C13.4744 15.3285 13.468 15.3149 13.4578 15.3047C13.4476 15.2945 13.434 15.2881 13.4192 15.2881Z" fill="#352F75"/>
<path d="M15.3729 14.5178H16.4729C16.7002 14.5178 16.9067 14.6109 17.0558 14.76C17.2049 14.9091 17.298 15.1156 17.298 15.3429V16.4429C17.298 16.6702 17.2049 16.8766 17.0558 17.0258C16.9067 17.1749 16.6998 17.2679 16.4729 17.2679H15.3729C15.1456 17.2679 14.9391 17.1749 14.79 17.0258C14.6409 16.8766 14.5479 16.6697 14.5479 16.4429V15.3429C14.5479 15.1156 14.6409 14.9091 14.79 14.76C14.9391 14.6109 15.1456 14.5178 15.3729 14.5178ZM16.4729 15.2881H15.3729C15.3581 15.2881 15.3445 15.2945 15.3343 15.3047C15.3241 15.3149 15.3177 15.3285 15.3177 15.3433V16.4433C15.3177 16.4581 15.3241 16.4717 15.3343 16.4819C15.3445 16.4921 15.3581 16.4985 15.3729 16.4985H16.4729C16.4878 16.4985 16.5013 16.4921 16.5115 16.4819C16.5217 16.4717 16.5281 16.4581 16.5281 16.4433V15.3433C16.5281 15.3285 16.5217 15.3149 16.5115 15.3047C16.5013 15.2945 16.4878 15.2881 16.4729 15.2881Z" fill="#352F75"/>
<path d="M18.4266 14.5178H19.5266C19.7539 14.5178 19.9604 14.6109 20.1095 14.76C20.2586 14.9091 20.3517 15.1156 20.3517 15.3429V16.4429C20.3517 16.6702 20.2586 16.8766 20.1095 17.0258C19.9604 17.1749 19.7535 17.2679 19.5266 17.2679H18.4266C18.1993 17.2679 17.9929 17.1749 17.8437 17.0258C17.6946 16.8766 17.6016 16.6697 17.6016 16.4429V15.3429C17.6016 15.1156 17.6946 14.9091 17.8437 14.76C17.9929 14.6109 18.1993 14.5178 18.4266 14.5178ZM19.5266 15.2881H18.4266C18.4118 15.2881 18.3982 15.2945 18.388 15.3047C18.3778 15.3149 18.3714 15.3285 18.3714 15.3433V16.4433C18.3714 16.4581 18.3778 16.4717 18.388 16.4819C18.3982 16.4921 18.4118 16.4985 18.4266 16.4985H19.5266C19.5415 16.4985 19.5551 16.4921 19.5653 16.4819C19.5755 16.4717 19.5818 16.4581 19.5818 16.4433V15.3433C19.5818 15.3285 19.5755 15.3149 19.5653 15.3047C19.5551 15.2945 19.5415 15.2881 19.5266 15.2881Z" fill="#352F75"/>
<path d="M21.4803 14.5178H22.5803C22.8076 14.5178 23.0141 14.6109 23.1632 14.76C23.3123 14.9091 23.4054 15.1156 23.4054 15.3429V16.4429C23.4054 16.6702 23.3123 16.8766 23.1632 17.0258C23.0141 17.1749 22.8072 17.2679 22.5803 17.2679H21.4803C21.253 17.2679 21.0466 17.1749 20.8974 17.0258C20.7483 16.8766 20.6553 16.6697 20.6553 16.4429V15.3429C20.6553 15.1156 20.7483 14.9091 20.8974 14.76C21.0466 14.6109 21.253 14.5178 21.4803 14.5178ZM22.5803 15.2881H21.4803C21.4655 15.2881 21.4519 15.2945 21.4417 15.3047C21.4315 15.3149 21.4251 15.3285 21.4251 15.3433V16.4433C21.4251 16.4581 21.4315 16.4717 21.4417 16.4819C21.4519 16.4921 21.4655 16.4985 21.4803 16.4985H22.5803C22.5952 16.4985 22.6088 16.4921 22.619 16.4819C22.6292 16.4717 22.6355 16.4581 22.6355 16.4433V15.3433C22.6355 15.3285 22.6292 15.3149 22.619 15.3047C22.6088 15.2945 22.5952 15.2881 22.5803 15.2881Z" fill="#352F75"/>
<path d="M24.5331 14.5178H25.633C25.8603 14.5178 26.0668 14.6109 26.2159 14.76C26.3651 14.9091 26.4581 15.1156 26.4581 15.3429V16.4429C26.4581 16.6702 26.3651 16.8766 26.2159 17.0258C26.0668 17.1749 25.8599 17.2679 25.633 17.2679H24.5331C24.3058 17.2679 24.0993 17.1749 23.9502 17.0258C23.8011 16.8766 23.708 16.6697 23.708 16.4429V15.3429C23.708 15.1156 23.8011 14.9091 23.9502 14.76C24.0993 14.6109 24.3058 14.5178 24.5331 14.5178ZM25.633 15.2881H24.5331C24.5182 15.2881 24.5046 15.2945 24.4944 15.3047C24.4842 15.3149 24.4779 15.3285 24.4779 15.3433V16.4433C24.4779 16.4581 24.4842 16.4717 24.4944 16.4819C24.5046 16.4921 24.5182 16.4985 24.5331 16.4985H25.633C25.6479 16.4985 25.6615 16.4921 25.6717 16.4819C25.6819 16.4717 25.6883 16.4581 25.6883 16.4433V15.3433C25.6883 15.3285 25.6819 15.3149 25.6717 15.3047C25.6615 15.2945 25.6479 15.2881 25.633 15.2881Z" fill="#352F75"/>
</svg>
