<svg width="56" height="57" viewBox="0 0 56 57" fill="none" xmlns="http://www.w3.org/2000/svg">
<path d="M46.0087 56.2221H9.99648C9.08943 55.8135 8.75022 55.122 8.77645 54.125C8.82705 52.1328 8.78957 50.137 8.79145 48.1448C8.79145 47.0204 9.43238 46.3644 10.5381 46.3438C10.6768 46.3438 10.8155 46.3213 10.986 46.3082C10.986 45.3712 11.0104 44.4847 10.9729 43.5927C10.9602 43.2941 10.8569 43.0065 10.6768 42.7681C8.19924 39.7621 5.70797 36.7673 3.20295 33.7838C1.07775 31.2669 -0.0148404 28.4014 0.000152233 25.0918C0.0263893 19.2578 0.000152233 13.4219 0.00952262 7.58604C-0.00254654 7.27309 0.0112435 6.95968 0.0507523 6.649C0.240632 5.38792 0.908362 4.24821 1.9156 3.46601C2.92284 2.6838 4.19239 2.31905 5.46121 2.44732C7.95748 2.66846 9.88029 4.84426 9.88404 7.46609C9.88404 11.2517 9.88404 15.038 9.88404 18.8249V19.4377C12.5359 17.766 15.0565 18.4482 16.9568 20.4385C19.7979 23.4145 22.7664 26.2687 25.6638 29.1923C26.2672 29.8013 26.7976 30.4816 27.3504 31.1432C27.5866 31.4318 27.7777 31.7579 27.9127 31.9509C29.0521 30.699 30.1615 29.4546 31.3085 28.2271C31.8313 27.6649 32.3917 27.1383 32.9352 26.5948L39.4945 20.0355C40.7913 18.7405 42.3412 18.1933 44.144 18.5944C44.8206 18.7443 45.4559 19.0835 46.1268 19.344V18.7705C46.1268 15.0224 46.1268 11.2742 46.1268 7.52607C46.1182 7.19795 46.1408 6.86976 46.1943 6.54592C46.6984 3.92222 48.9604 2.20931 51.586 2.45106C54.086 2.68345 55.9976 4.85363 55.9995 7.47734C55.9995 13.4594 55.9995 19.4408 55.9995 25.4216C56.0268 28.2837 55.0395 31.063 53.2127 33.2665C50.6115 36.4524 47.9559 39.599 45.3266 42.7625C45.2123 42.9011 45.0455 43.0586 45.0417 43.2104C45.0155 44.2449 45.0286 45.2831 45.0286 46.3232C45.1635 46.3344 45.2347 46.3457 45.306 46.3476C46.6534 46.3813 47.2194 46.9623 47.2194 48.3116C47.2194 50.2325 47.1819 52.1535 47.2344 54.0744C47.255 55.077 46.9533 55.8098 46.0087 56.2221ZM26.3309 46.3195C26.3422 46.2051 26.3553 46.1321 26.3553 46.0646C26.3553 43.4315 26.3928 40.7947 26.3403 38.1616C26.2916 35.849 25.4988 33.7706 23.8759 32.1102C20.6387 28.8006 17.3653 25.5309 14.0557 22.3013C13.7465 21.9977 13.1768 21.8421 12.7251 21.8309C12.0786 21.8178 11.5894 22.2282 11.3777 22.8598C11.2622 23.1707 11.2431 23.5093 11.323 23.8313C11.4029 24.1532 11.5781 24.4436 11.8256 24.6645C13.9495 26.7885 16.0735 28.9124 18.1974 31.0364C18.9846 31.8253 19.0483 32.828 18.3717 33.5233C17.6671 34.2485 16.6719 34.1923 15.8511 33.3733C13.581 31.102 11.3146 28.8331 9.05194 26.5667C8.2569 25.7954 7.6285 24.8693 7.20558 23.8455C6.78267 22.8218 6.57423 21.7221 6.59316 20.6146C6.59316 16.9189 6.59316 13.2233 6.59316 9.52945C6.59316 8.81543 6.61564 8.10141 6.59316 7.38926C6.54068 6.15049 5.33565 5.39149 4.26368 5.91249C3.55902 6.25357 3.3004 6.84952 3.3004 7.61602C3.3004 13.525 3.3004 19.434 3.30977 25.3429C3.307 27.5961 4.11829 29.7744 5.59427 31.4768C8.31918 34.7302 11.0291 37.9986 13.7503 41.252C14.1144 41.6648 14.3075 42.201 14.29 42.7512C14.2638 43.9338 14.29 45.1182 14.29 46.3251L26.3309 46.3195ZM41.7284 46.3326C41.7284 45.1032 41.7452 43.9188 41.7284 42.7362C41.7116 42.1848 41.9075 41.648 42.2756 41.237C44.9405 38.051 47.5717 34.8407 50.2592 31.6792C51.9005 29.7821 52.7788 27.343 52.7236 24.835C52.6954 19.181 52.7142 13.5287 52.7142 7.87464C52.7142 7.68724 52.7236 7.49983 52.7142 7.32741C52.7127 6.89151 52.5381 6.47406 52.2288 6.16688C51.9195 5.85971 51.5009 5.68798 51.065 5.68947C50.6291 5.69096 50.2116 5.86555 49.9045 6.17483C49.5973 6.48412 49.4256 6.90276 49.4271 7.33866C49.4158 7.5017 49.4271 7.66662 49.4271 7.83154C49.4271 12.0763 49.4158 16.3211 49.4271 20.564C49.4449 21.691 49.2305 22.8095 48.7972 23.85C48.3638 24.8905 47.7208 25.8306 46.9083 26.6117L41.7077 31.8104C41.1249 32.3932 40.5552 32.9891 39.9536 33.5514C39.7267 33.7654 39.4436 33.9105 39.1373 33.9697C38.8311 34.0288 38.5143 33.9996 38.224 33.8854C37.9338 33.7712 37.682 33.5768 37.4981 33.3248C37.3142 33.0729 37.2058 32.7738 37.1856 32.4625C37.1387 31.8703 37.4067 31.4149 37.8172 31.0083C39.918 28.9224 42.0076 26.8178 44.1122 24.7376C44.6594 24.196 44.8843 23.5794 44.6238 22.8504C44.1984 21.6622 42.7741 21.4411 41.8127 22.4044C38.6892 25.5191 35.5708 28.6363 32.4573 31.756C30.5663 33.6507 29.6462 35.9483 29.6462 38.617C29.6462 40.9908 29.6462 43.369 29.6462 45.7516V46.3382L41.7284 46.3326ZM26.3328 49.6628H12.1161V52.8919H26.3328V49.6628ZM43.8985 49.6722H29.6912V52.9012H43.8985V49.6722Z" fill="black"/>
<path d="M27.9369 2.66288C29.1138 1.35477 30.3863 0.562037 31.9343 0.187221C35.8886 -0.749817 39.9835 2.03131 40.5251 6.04371C40.8474 8.44003 40.1603 10.4909 38.4636 12.1963C35.4351 15.261 32.3853 18.317 29.3143 21.3643C28.4766 22.2001 27.5377 22.2076 26.7131 21.3849C23.6134 18.2871 20.5081 15.2154 17.4439 12.097C13.6958 8.27574 15.3187 1.83828 20.4144 0.335273C23.0381 -0.440594 25.3957 0.136621 27.4178 1.99945C27.6066 2.2078 27.7801 2.42952 27.9369 2.66288ZM27.9856 17.9329C28.0417 17.9048 28.095 17.8715 28.1449 17.8335C30.8605 15.118 33.5947 12.4231 36.2803 9.67755C37.6896 8.23826 37.624 5.90878 36.2278 4.46761C35.5536 3.76971 34.636 3.35907 33.6663 3.32136C32.6967 3.28365 31.7499 3.62178 31.0235 4.26521C30.4088 4.81057 29.8503 5.41964 29.26 5.99124C28.456 6.76711 27.5433 6.76523 26.7394 5.99124C26.164 5.42902 25.6149 4.83306 25.0171 4.30457C24.5421 3.85601 23.9544 3.54456 23.3165 3.40332C22.6787 3.26209 22.0145 3.29635 21.3945 3.50246C20.7657 3.69125 20.197 4.04071 19.7444 4.51637C19.2919 4.99204 18.9712 5.57746 18.814 6.2149C18.6567 6.85233 18.6684 7.51974 18.8478 8.15129C19.0273 8.78283 19.3682 9.35669 19.8371 9.81623C22.4608 12.4718 25.1089 15.0955 27.7476 17.7323C27.8226 17.8035 27.905 17.8635 27.9856 17.9329Z" fill="black"/>
</svg>
