<svg width="54" height="54" viewBox="0 0 54 54" fill="none" xmlns="http://www.w3.org/2000/svg">
<path d="M25.1288 53.9698C24.1771 53.8312 23.2164 53.7431 22.2773 53.547C11.6107 51.3269 4.41811 45.0536 1.18881 34.6749C-3.06056 20.9967 4.44329 6.4028 17.9362 1.58494C23.4035 -0.361635 28.9482 -0.496564 34.5396 1.07761C35.5723 1.36725 36.1048 2.24159 35.853 3.19689C35.6119 4.11981 34.6584 4.62174 33.6419 4.33389C30.7711 3.49338 27.7656 3.21243 24.7888 3.50633C18.708 4.14859 13.5753 6.72483 9.47344 11.262C6.26933 14.8044 4.29937 18.9674 3.6733 23.7007C2.75038 30.663 4.54764 36.8913 9.07046 42.2651C12.5732 46.4137 17.0295 49.0727 22.3619 50.1018C29.7883 51.541 36.4718 49.8067 42.2738 44.9565C46.453 41.4627 49.0544 36.9723 50.15 31.6309C50.8909 27.9874 50.7564 24.2201 49.7578 20.6387C49.6404 20.2743 49.5946 19.8907 49.6229 19.5089C49.6781 19.141 49.8583 18.8034 50.1332 18.5527C50.4081 18.3021 50.7609 18.1537 51.1323 18.1326C51.9689 18.0787 52.6939 18.5158 52.8918 19.3344C53.2318 20.7269 53.4999 22.1373 53.7769 23.546C53.8795 24.0569 53.9262 24.5804 53.9982 25.0986V28.8928C53.9546 29.0241 53.9221 29.1589 53.9011 29.2957C53.554 33.9896 51.933 38.4998 49.2127 42.3407C44.9058 48.4323 39.0859 52.2193 31.7187 53.5596C30.7922 53.7269 29.8531 53.8348 28.9212 53.9698H25.1288Z" fill="black"/>
<path d="M53.998 10.2421C53.7324 10.6492 53.4391 11.0375 53.12 11.4042C51.3462 13.2033 49.5399 14.9736 47.7715 16.7798C47.2827 17.2881 46.619 17.5917 45.9148 17.629C43.3656 17.8538 40.8181 18.1111 38.2725 18.3828C38.0394 18.4428 37.8304 18.5728 37.6734 18.7552C34.5646 21.8424 31.4595 24.9415 28.3579 28.0527C27.5771 28.8335 26.5912 28.9 25.877 28.2326C25.5558 27.9397 25.3611 27.5334 25.3343 27.0995C25.3074 26.6657 25.4504 26.2384 25.7331 25.9082C25.8572 25.7607 25.9993 25.6276 26.1343 25.4908C29.0019 22.6231 31.848 19.7339 34.7535 16.9057C35.3668 16.3419 35.7332 15.5592 35.7736 14.7271C35.9535 12.4387 36.2036 10.1539 36.4212 7.86731C36.461 7.30389 36.707 6.77487 37.1121 6.38129C39.0227 4.49348 40.9237 2.59488 42.8151 0.685489C43.3674 0.127782 43.9845 -0.156468 44.7544 0.124184C45.5244 0.404837 45.8465 1.02371 45.9004 1.83688C46.0156 3.62154 46.1829 5.4044 46.3052 7.18906C46.3304 7.56866 46.4761 7.6928 46.8449 7.72878C48.5756 7.84752 50.3045 8.03102 52.0388 8.11378C52.9923 8.15875 53.631 8.54375 53.9998 9.4091L53.998 10.2421ZM42.7845 5.48356C41.7518 6.52521 40.8235 7.45173 39.906 8.39263C39.8153 8.51491 39.7633 8.66153 39.7567 8.81361C39.62 10.0717 39.488 11.3311 39.3609 12.5916C39.2853 13.3472 39.2242 14.1064 39.1558 14.88C41.07 14.7001 42.9176 14.4968 44.767 14.3403C45.0166 14.3258 45.2607 14.2615 45.485 14.1512C45.7094 14.0409 45.9093 13.8868 46.0732 13.698C46.692 13.0288 47.3487 12.3919 48.0071 11.7623C48.1888 11.6328 48.3866 11.5275 48.5954 11.4492C48.3436 11.2585 48.3184 11.2243 48.2914 11.2225C47.2587 11.1398 46.2297 11.0426 45.197 10.9851C43.7056 10.9095 43.1191 10.3284 43.0382 8.84959C42.995 7.77915 42.8816 6.71951 42.7845 5.48356Z" fill="black"/>
<path d="M8.28418 26.9606C8.49467 18.1686 14.4819 10.7476 23.0814 8.81357C25.9542 8.17203 28.9395 8.23375 31.7834 8.99348C32.8412 9.26693 33.3918 10.1557 33.1291 11.1326C32.879 12.0609 31.9633 12.534 30.9163 12.2732C22.7162 10.2402 14.6168 14.8944 12.3662 22.9415C10.0275 31.3071 15.2699 40.0056 23.7704 41.8568C32.235 43.699 40.5844 38.0788 42.0056 29.5908C42.3802 27.4231 42.2882 25.2004 41.7358 23.0711C41.5181 22.2291 41.7879 21.4969 42.4374 21.0921C42.7384 20.8887 43.0996 20.7936 43.4618 20.8223C43.824 20.8511 44.1656 21.002 44.4307 21.2504C44.7033 21.5195 44.9021 21.854 45.0082 22.2219C45.6214 24.5155 45.7845 26.906 45.4886 29.2616C45.093 32.6975 43.7193 35.9476 41.5307 38.6257C38.3805 42.4936 34.3345 44.7964 29.3619 45.4423C19.9061 46.6674 11.1807 40.4769 8.99301 31.4672C8.6332 29.9956 8.51266 28.4646 8.28418 26.9606Z" fill="black"/>
<path d="M26.9998 37.109C24.5562 37.1067 22.1963 36.2179 20.3581 34.6077C18.52 32.9975 17.3283 30.7752 17.0043 28.353C16.2415 22.8318 20.1275 17.6991 25.6398 16.9938C26.5264 16.8958 27.4211 16.8958 28.3078 16.9938C29.0112 17.0586 29.5239 17.6901 29.6301 18.3791C29.6815 18.7207 29.6238 19.0698 29.4652 19.3767C29.3066 19.6836 29.0551 19.9326 28.7467 20.0882C28.4159 20.2424 28.0511 20.3093 27.6871 20.2825C23.9612 19.9119 20.6708 22.6051 20.311 26.4784C19.9673 30.1467 22.7505 33.2411 26.1273 33.6602C30.1896 34.1658 33.6258 31.1794 33.7625 27.0038C33.7949 26.0125 34.5037 25.309 35.4644 25.3162C35.6888 25.3129 35.9115 25.3559 36.1186 25.4424C36.3257 25.529 36.5128 25.6573 36.6681 25.8193C36.8234 25.9814 36.9436 26.1737 37.0213 26.3843C37.099 26.5949 37.1324 26.8192 37.1195 27.0433C37.1106 27.7947 37.0298 28.5435 36.8784 29.2796C36.3645 31.5118 35.1066 33.5029 33.3114 34.9257C31.5162 36.3485 29.2905 37.1184 26.9998 37.109Z" fill="black"/>
</svg>
