<svg width="365" height="55" viewBox="0 0 365 55" fill="none" xmlns="http://www.w3.org/2000/svg">
<mask id="mask0_521_6881" style="mask-type:luminance" maskUnits="userSpaceOnUse" x="0" y="0" width="365" height="55">
<path d="M0.141541 54.1642L365 54.1642L365 0.656658L0.141536 0.656689L0.141541 54.1642Z" fill="white"/>
</mask>
<g mask="url(#mask0_521_6881)">
<mask id="mask1_521_6881" style="mask-type:luminance" maskUnits="userSpaceOnUse" x="0" y="0" width="365" height="55">
<path d="M364.999 54.1642L364.999 0.656658L0.140468 0.656689L0.140472 54.1642L364.999 54.1642Z" fill="white"/>
</mask>
<g mask="url(#mask1_521_6881)">
<mask id="mask2_521_6881" style="mask-type:luminance" maskUnits="userSpaceOnUse" x="0" y="0" width="365" height="55">
<path d="M0.140468 0.656689L0.140472 54.1642L364.999 54.1642L364.999 0.656658L0.140468 0.656689Z" fill="white"/>
</mask>
<g mask="url(#mask2_521_6881)">
<path fill-rule="evenodd" clip-rule="evenodd" d="M0.140472 54.1642L364.999 54.1642C359.465 54.1642 354.081 52.2866 349.654 48.8134L295.096 6.00742C290.67 2.53424 285.286 0.656665 279.752 0.656665L85.3878 0.656682C79.8535 0.656683 74.4693 2.53426 70.0433 6.00744L15.485 48.8135C11.0589 52.2866 5.67471 54.1642 0.140472 54.1642Z" fill="white"/>
</g>
</g>
</g>
</svg>
