<svg width="101" height="35" viewBox="0 0 101 35" fill="none" xmlns="http://www.w3.org/2000/svg">
<mask id="mask0_1453_3611" style="mask-type:luminance" maskUnits="userSpaceOnUse" x="0" y="0" width="101" height="35">
<path d="M101 0H0V35H101V0Z" fill="white"/>
</mask>
<g mask="url(#mask0_1453_3611)">
<mask id="mask1_1453_3611" style="mask-type:luminance" maskUnits="userSpaceOnUse" x="0" y="0" width="102" height="35">
<path d="M0.000976562 0V35H101.001V0H0.000976562Z" fill="white"/>
</mask>
<g mask="url(#mask1_1453_3611)">
<mask id="mask2_1453_3611" style="mask-type:luminance" maskUnits="userSpaceOnUse" x="0" y="0" width="102" height="35">
<path d="M101.001 35V0H0.000976562V35H101.001Z" fill="white"/>
</mask>
<g mask="url(#mask2_1453_3611)">
<path fill-rule="evenodd" clip-rule="evenodd" d="M101.001 0H0.000976562C1.53297 0 3.02343 1.22815 4.24864 3.5L19.3515 31.5C20.5767 33.7719 22.0671 35 23.5991 35H77.4029C78.9349 35 80.4253 33.7719 81.6505 31.5L96.7533 3.5C97.9786 1.22815 99.469 0 101.001 0Z" fill="white"/>
</g>
</g>
</g>
<path d="M45.8053 25.9996H42.2808V14.6498H45.8053V25.9996ZM44.0411 13.1016C42.9141 13.1016 42 12.1681 42 11.0411C42 10.4998 42.215 9.98062 42.5978 9.59784C42.9806 9.21505 43.4998 9 44.0411 9C44.5825 9 45.1017 9.21505 45.4844 9.59784C45.8672 9.98062 46.0823 10.4998 46.0823 11.0411C46.0823 12.1681 45.1678 13.1016 44.0411 13.1016ZM58.9962 25.9996H55.4793V20.4746C55.4793 19.1579 55.4528 17.4693 53.6469 17.4693C51.8145 17.4693 51.5337 18.8998 51.5337 20.3798V25.9996H48.013V14.6498H51.3933V16.1981H51.4426C51.9131 15.3063 53.0625 14.3652 54.7773 14.3652C58.3443 14.3652 59 16.7141 59 19.765V25.9996H58.9962Z" fill="#352F75"/>
</svg>
