<svg width="55" height="55" viewBox="0 0 55 55" fill="none" xmlns="http://www.w3.org/2000/svg">
<path d="M24.924 55C24.253 54.8258 23.5747 54.681 22.9074 54.4702C21.8752 54.1402 20.9109 53.6873 20.2307 52.7798C20.15 52.6717 19.9264 52.6387 19.7632 52.6258C19.2664 52.5873 18.7549 52.6258 18.2672 52.5433C16.8005 52.2793 15.8435 51.1628 15.7574 49.6778C15.7317 49.2177 15.7574 48.7612 15.7574 48.2112C14.2797 48.3267 13.0605 47.938 12.3657 46.5978C11.6947 45.3145 11.8505 44.077 12.8607 42.9477C12.0027 42.031 11.7937 40.9585 12.1439 39.7778C12.2331 39.4387 12.3903 39.1211 12.6058 38.8444C12.8214 38.5678 13.0908 38.3377 13.3979 38.1682C13.715 37.9977 13.7645 37.8015 13.7297 37.488C13.5216 35.2363 12.4887 33.141 10.8294 31.6048C8.88785 29.7715 7.47985 27.6192 6.72819 25.0433C4.30452 16.7255 9.83935 7.88334 18.3827 6.45518C21.6893 5.91927 25.0797 6.53138 27.9901 8.18972C30.9005 9.84806 33.1556 12.4527 34.3804 15.5705C34.4592 15.7685 34.538 15.9665 34.6315 16.2048C36.2027 15.389 37.7482 14.586 39.301 13.7793C43.9613 11.352 48.6217 8.92345 53.282 6.49368C53.6853 6.28284 54.0685 6.12701 54.4755 6.45701C54.8825 6.78701 54.8422 7.21968 54.6937 7.67434C52.2089 15.708 49.7278 23.7429 47.2504 31.779C47.0028 32.5802 46.6765 32.7543 45.8387 32.5838C44.3335 32.2795 42.8247 31.9898 41.3214 31.6782C41.1694 31.6376 41.0092 31.6401 40.8587 31.6855C40.7081 31.7308 40.5731 31.8171 40.4688 31.9348C38.7528 33.5848 37.0112 35.211 35.2952 36.8628C35.0828 37.071 34.9318 37.3336 34.8589 37.6218C34.4097 39.6202 34.7672 41.3893 36.4062 42.7662C36.4612 42.812 36.5089 42.8652 36.5602 42.9147C38.19 44.5115 38.2359 45.7655 36.7252 47.4613C36.1935 48.0572 36.1917 48.5467 36.8095 49.0765C37.3247 49.5165 37.9095 49.874 38.4504 50.2847C38.7754 50.5049 39.076 50.7594 39.3469 51.0437C40.0802 51.8998 39.752 52.9852 38.663 53.2583C38.089 53.3916 37.5031 53.4665 36.914 53.482C34.5307 53.5792 32.162 53.724 29.8264 54.2373C28.5925 54.5105 27.3495 54.747 26.112 55H24.924ZM14.8737 26.4935L33.0402 17.0317C32.9705 16.8043 32.9247 16.6155 32.8569 16.4358C30.4589 10.0943 24.0569 6.76501 17.5119 8.49384C10.4627 10.3565 7.16819 16.841 8.07935 22.8818C8.51569 25.7693 9.85585 28.2168 11.9679 30.2408C13.9845 32.1805 15.2459 34.507 15.4695 37.334C15.5007 37.7227 15.7299 37.6878 15.9847 37.6878H26.0332C26.2165 35.1468 27.0947 32.9065 28.7832 31.0145C28.2864 30.3563 27.8354 29.7312 27.3514 29.1353C27.2072 28.9864 27.02 28.8864 26.816 28.8493C24.6967 28.4203 22.5755 28.0078 20.4562 27.5917L14.8737 26.4935ZM20.1189 25.7327C22.4765 26.1947 24.7022 26.6182 26.9022 27.0783C27.0966 27.1253 27.2991 27.1286 27.495 27.088C27.6909 27.0475 27.8754 26.964 28.0352 26.8437C31.9072 24.233 35.7841 21.6309 39.6659 19.0373C41.0904 18.0803 42.5149 17.1197 43.9449 16.1682C44.537 15.774 45.1732 15.8877 45.3987 16.4193C45.5728 16.83 45.4133 17.171 45.1732 17.5193C42.5747 21.2043 39.983 24.893 37.398 28.5853C37.2899 28.7375 37.1927 28.8952 37.068 29.0822L45.7214 30.778C47.9837 23.4667 50.224 16.2305 52.4882 8.87701L20.1189 25.7327ZM22.9935 52.6295C23.1089 52.6965 23.2277 52.7577 23.3492 52.8128C23.4995 52.8697 23.6535 52.9192 23.8075 52.9632C25.1734 53.3518 26.541 53.229 27.8904 52.9063C30.1545 52.3655 32.4315 51.9457 34.7635 51.8558C35.5922 51.8247 36.4135 51.7697 37.2605 51.7257C36.6115 51.1757 35.9534 50.7027 35.4107 50.1252C34.3235 48.9665 34.2575 47.6758 35.2769 46.5135C36.4025 45.2302 36.1935 44.9643 35.0495 43.9028C33.2364 42.2308 32.6332 40.1408 33.0567 37.7667C33.1277 37.482 33.1285 37.1843 33.0592 36.8991C32.99 36.614 32.8526 36.3499 32.6589 36.1295C31.7129 34.947 30.8255 33.7223 29.8594 32.4628C28.5979 33.9637 27.8814 35.8472 27.8262 37.807C27.8262 37.917 27.9839 38.0637 28.103 38.1388C28.4446 38.3529 28.7398 38.6332 28.9712 38.9632C29.2026 39.2931 29.3656 39.6662 29.4505 40.0602C29.72 41.173 29.4285 42.1373 28.6695 42.9697C29.6797 44.0953 29.8337 45.3218 29.1664 46.6143C28.4715 47.96 27.256 48.3468 25.9654 48.235C25.7655 49.2177 25.6959 50.1747 25.3622 51.029C24.9992 51.9603 24.1137 52.404 22.9935 52.6295ZM41.028 20.3738L40.9492 20.2932L28.9574 28.3415L33.7075 34.6317C33.9184 33.5555 34.1439 32.6003 34.2869 31.6323C34.4619 30.231 34.9919 28.8975 35.8269 27.7585C37.0149 26.1672 38.1222 24.5172 39.2625 22.8928L41.028 20.3738ZM20.7972 39.4295C18.9199 39.4295 17.0425 39.4295 15.1652 39.4295C14.2632 39.4295 13.6802 40.0418 13.7425 40.8705C13.7975 41.6148 14.3769 42.0768 15.299 42.0787C18.9474 42.0787 22.5957 42.0787 26.244 42.0787C26.4406 42.0765 26.6365 42.055 26.8289 42.0145C27.0523 41.9782 27.2595 41.875 27.4231 41.7186C27.5868 41.5621 27.6992 41.3598 27.7455 41.1382C28.0059 40.1812 27.4027 39.4387 26.332 39.4313C24.4822 39.4167 22.6397 39.4295 20.7972 39.4295ZM20.7642 46.464C22.6434 46.464 24.5244 46.4768 26.4035 46.464C27.278 46.4548 27.8005 45.9378 27.806 45.1642C27.8115 44.3905 27.245 43.8515 26.3668 43.8313C25.7765 43.8185 25.1862 43.8313 24.5959 43.8313C21.4975 43.8313 18.4004 43.8313 15.3045 43.8313C14.6904 43.8313 14.1605 43.9835 13.8745 44.5812C13.4199 45.5327 14.0762 46.4603 15.233 46.4713C17.0774 46.4768 18.9199 46.464 20.7642 46.464ZM23.9854 48.2607H17.51C17.51 48.6365 17.51 48.9757 17.51 49.313C17.51 50.3378 17.994 50.8383 19.0097 50.853C19.9264 50.8658 20.843 50.8127 21.7487 50.864C24.1155 50.9997 24.1064 50.0445 24.0367 48.3835C24.0254 48.3404 24.0081 48.299 23.9854 48.2607ZM36.2522 30.7047C36.0359 31.8322 35.8232 32.9285 35.6124 34.0248L35.7132 34.0597L38.7199 31.1905L36.2522 30.7047Z" fill="black"/>
<path d="M19.8934 2.22017C19.8934 1.79117 19.8806 1.36217 19.8934 0.936833C19.9172 0.366667 20.2912 0 20.7917 0C21.2922 0 21.6296 0.352 21.6461 0.916667C21.6699 1.8095 21.6717 2.70233 21.6461 3.59517C21.6502 3.71199 21.6302 3.82841 21.5873 3.93716C21.5444 4.04591 21.4796 4.14465 21.3968 4.22723C21.3141 4.3098 21.2152 4.37444 21.1064 4.41709C20.9975 4.45975 20.8811 4.47952 20.7642 4.47517C20.2802 4.46417 19.9246 4.1085 19.9007 3.5585C19.8787 3.11667 19.8934 2.6675 19.8934 2.22017Z" fill="black"/>
<path d="M8.66245 9.63967C8.39952 9.50989 8.14966 9.35518 7.91628 9.17767C7.30762 8.60017 6.71728 8.00433 6.13612 7.403C5.71445 6.96667 5.69795 6.5065 6.05728 6.11967C6.41662 5.73283 6.92628 5.73283 7.37545 6.16917C8.00062 6.77783 8.64228 7.3755 9.20878 8.03917C9.30229 8.1703 9.36586 8.32036 9.395 8.47875C9.42415 8.63715 9.41816 8.80001 9.37745 8.95583C9.28578 9.22533 8.93012 9.40133 8.66245 9.63967Z" fill="black"/>
<path d="M32.8733 9.60297C32.6405 9.41047 32.3031 9.2583 32.1968 9.00897C32.0905 8.75964 32.1088 8.3178 32.2701 8.13447C32.9236 7.40554 33.6132 6.70983 34.3363 6.04997C34.4162 5.97726 34.51 5.92156 34.6121 5.88629C34.7142 5.85101 34.8224 5.83689 34.9301 5.84478C35.0378 5.85267 35.1428 5.88241 35.2386 5.93218C35.3345 5.98196 35.4192 6.05073 35.4876 6.1343C35.8011 6.4808 35.8855 6.8878 35.5536 7.2343C34.8826 7.95114 34.1805 8.6368 33.4746 9.31697C33.3445 9.44164 33.1336 9.48197 32.8733 9.60297Z" fill="black"/>
<path d="M6.60176 35.8729C6.36526 35.6712 6.03893 35.5172 5.93993 35.2716C5.84093 35.0259 5.84276 34.5786 6.00409 34.3971C6.65641 33.6659 7.34605 32.9689 8.07026 32.3089C8.15088 32.2369 8.24493 32.1817 8.347 32.1462C8.44907 32.1107 8.55715 32.0958 8.665 32.1023C8.77286 32.1088 8.87837 32.1365 8.97547 32.1839C9.07257 32.2313 9.15933 32.2975 9.23076 32.3786C9.38575 32.5303 9.47521 32.7367 9.48 32.9536C9.4848 33.1704 9.40456 33.3806 9.25643 33.5391C8.60743 34.2247 7.9346 34.8902 7.2526 35.5429C7.11143 35.6804 6.8896 35.7317 6.60176 35.8729Z" fill="black"/>
<path d="M2.2 21.6811C1.77283 21.6811 1.34383 21.6811 0.916667 21.6811C0.315333 21.6682 0 21.3584 0 20.8139C0 20.2694 0.304333 19.9687 0.876333 19.9577C1.76733 19.9394 2.65894 19.9394 3.55117 19.9577C4.10117 19.9669 4.44033 20.3244 4.43667 20.8157C4.433 21.3071 4.0865 21.6609 3.5475 21.6792C3.09283 21.6921 2.6455 21.6811 2.2 21.6811Z" fill="black"/>
</svg>
