<svg width="184" height="38" viewBox="0 0 184 38" fill="none" xmlns="http://www.w3.org/2000/svg">
<path d="M182.241 13.1303C183.675 14.2902 182.157 16.1248 180.892 15.197C179.331 14.2059 175.788 13.742 175.345 15.935C174.776 19.3936 183.949 17.4113 183.802 23.0207C183.654 28.3773 175.894 28.5038 172.983 26.0997C172.287 25.5304 172.309 24.6024 172.688 24.033C173.236 23.4848 173.848 23.295 174.565 23.8854C176.294 25.0664 180.744 25.9521 181.06 22.9576C180.786 19.8364 172.013 21.7133 172.667 15.7243C173.152 11.6331 179.331 10.8949 182.241 13.1303ZM168.406 13.9527V21.5868C168.406 29.4738 155.69 29.4738 155.69 21.5868V13.9527C155.69 12.0549 158.453 11.9705 158.453 13.9527V21.5868C158.453 25.7412 165.644 25.9943 165.644 21.5868V13.9527C165.644 12.0758 168.406 11.9283 168.406 13.9527ZM81.3297 12.0338C85.0201 12.2235 88.8793 14.7752 88.8793 19.7732C88.8793 24.7711 85.0201 27.3651 81.3297 27.3651C77.4283 27.5338 73.3793 24.9398 73.3793 19.7732C73.3793 14.5854 77.4283 12.0338 81.3297 12.0338ZM99.9091 12.5609C105.266 12.5609 106.362 19.731 101.891 21.5235L104.696 24.9399C105.793 26.5638 103.6 28.1242 102.334 26.5215L99.1499 21.9664H95.839V25.7834C95.839 27.6181 93.0342 27.6814 93.0342 25.8256V13.8474C93.0342 13.1092 93.6036 12.5609 94.2996 12.5609H99.9091ZM56.2126 12.3712C56.8242 12.3712 57.1827 12.7297 57.5412 13.1303L62.1806 19.3936L66.9888 12.8983C67.6847 12.0338 69.3929 12.3712 69.3929 13.8263V25.6991C69.3929 26.6269 68.8024 27.1542 68.1276 27.1542C67.3684 27.1542 66.7779 26.6269 66.7779 25.6991V17.8964L63.2773 22.325C62.518 23.2528 61.5691 23.2528 60.8731 22.325L57.7309 17.8964V25.6991C57.7309 26.6269 56.9718 27.1542 56.2126 27.1542C55.5377 27.1542 54.9473 26.6269 54.9473 25.6991V13.8263C54.9473 12.7297 55.8752 12.3712 56.2126 12.3712ZM115.199 12.3712C117.94 12.3712 120.408 14.2059 120.408 17.7276C120.408 21.0596 117.94 22.9154 115.199 22.9154H111.677V25.6991C111.677 26.6269 111.086 27.1542 110.327 27.1542C109.631 27.1542 108.893 26.6269 108.893 25.6991V13.8263C108.893 13.1303 109.442 12.3712 110.327 12.3712H115.199ZM135.339 12.5609C136.077 12.5609 136.646 13.1092 136.646 13.8685V25.8467C136.646 26.5847 136.077 27.1542 135.339 27.1542C134.58 27.1542 133.905 26.5847 133.905 25.8467V21.2283H127.03V25.8467C127.03 26.5847 126.482 27.1542 125.744 27.1542C124.795 27.1542 124.246 26.5847 124.246 25.8467V13.8685C124.246 13.1092 124.795 12.5609 125.744 12.5609C126.482 12.5609 127.03 13.1092 127.03 13.8685V18.4658H133.905V13.8685C133.905 13.1092 134.58 12.5609 135.339 12.5609ZM150.017 12.5609C151.957 12.5609 151.915 15.3024 150.017 15.3024H143.944V18.4658H149.258C151.135 18.4658 151.135 21.2283 149.258 21.2283H143.944V24.3915H150.376C152.294 24.3915 152.442 27.1542 150.376 27.1542H142.446C141.708 27.1542 141.139 26.5847 141.139 25.8467V13.8685C141.139 13.1092 141.708 12.5609 142.446 12.5609H150.017ZM81.0976 14.7752C78.7357 14.7752 76.163 16.4413 76.163 19.7732C76.163 23.0841 78.7357 24.7711 81.0976 24.7711C83.5229 24.7711 86.1167 23.0841 86.1167 19.7732C86.1167 16.4413 83.5229 14.7752 81.0976 14.7752ZM115.199 15.0283H111.677V20.2794H115.199C116.612 20.2794 117.729 19.0351 117.729 17.7276C117.729 16.2515 116.612 15.0283 115.199 15.0283ZM99.9091 15.1126H95.839V19.5412H99.9091C102.651 19.5412 102.819 15.1126 99.9091 15.1126Z" fill="#3DB5E6"/>
<path d="M38.2187 23.6319C36.1628 31.8919 28.6403 37.7686 19.7805 37.7686C10.8806 37.7686 3.4229 31.5441 1.45117 23.25C3.82207 23.25 6.03852 23.2608 7.06752 23.2608C7.55293 23.2608 7.64719 23.2692 7.67528 23.2672C8.44953 23.2291 9.42036 22.9735 10.0662 21.403L12.5274 14.9648L17.9933 28.125C18.4847 29.1741 19.3051 29.0998 19.7945 29.0998H19.8407C20.7955 29.0998 21.2107 28.7652 21.5737 28.0732L27.7477 15.0635L29.8538 20.9267L29.9822 21.2106C30.4275 22.1874 30.7478 23.1523 31.8498 23.2784C32.077 23.3044 34.7151 23.2583 38.2714 23.2583C38.2714 23.2583 38.2714 23.2811 38.2187 23.6319Z" fill="#3DB5E6"/>
<path d="M38.8225 18.7669C38.8225 18.8651 38.8225 19.1123 38.8205 19.1123H38.8164H33.14L29.8283 9.86127C29.5334 9.17328 29.0901 8.14187 27.7984 8.14187C27.0081 8.14187 26.294 8.79456 25.8888 9.87169L19.8854 23.7776L14.1065 9.95605C13.5409 8.72848 13.1498 8.15114 12.0185 8.15114C11.2502 8.15114 10.6866 8.43414 10.0728 9.88837L6.64283 19.2497L0.944243 19.2437C0.940228 19.1013 0.938232 18.9589 0.938232 18.8165C0.938232 8.41022 9.37478 0 19.7811 0C30.1873 0 38.8225 8.36057 38.8225 18.7669Z" fill="#D8292F"/>
</svg>
