<svg width="57" height="54" viewBox="0 0 57 54" fill="none" xmlns="http://www.w3.org/2000/svg">
<path d="M0 52.3475C0.306472 51.7667 0.844579 51.7203 1.39338 51.7952C1.94217 51.87 2.20945 51.6419 2.45177 51.1644C3.37475 49.347 4.38504 47.5758 5.28307 45.7477C6.05816 44.1761 7.1415 42.952 8.68633 42.1253C9.20339 41.8411 9.61187 41.3937 9.84807 40.8531C12.8985 34.6761 15.9644 28.5069 19.0458 22.3454C19.787 20.8558 20.865 20.6153 22.1818 21.6327C22.5381 21.9017 22.8731 22.1672 23.2705 22.4897C23.5805 21.777 23.8674 21.1213 24.1507 20.462C24.7868 18.9813 25.4247 17.5024 26.0501 16.02C26.3052 15.3775 26.7657 14.8375 27.3597 14.484C27.5219 14.386 27.6341 14.0707 27.6341 13.8568C27.6502 9.69809 27.6466 5.54113 27.6466 1.38416C27.6406 1.18055 27.6507 0.976787 27.6769 0.774779C27.7428 0.347144 27.9727 0.0477996 28.4252 0.00859977C28.6212 -0.0208963 28.8209 0.0261158 28.9831 0.139895C29.1454 0.253674 29.2576 0.425497 29.2965 0.619761C29.3179 0.689252 29.35 0.756961 29.4017 0.888815H29.979C32.094 0.888815 34.2108 0.888815 36.3258 0.888815C36.7231 0.888815 37.0635 0.960087 37.2737 1.33249C37.484 1.70488 37.3503 2.04521 37.1294 2.36594C36.773 2.88801 36.4594 3.43502 36.0692 3.93037C35.7788 4.29564 35.8305 4.55757 36.087 4.89967C36.4737 5.41996 36.8265 5.96876 37.1704 6.51756C37.6336 7.25701 37.2844 7.90915 36.4113 7.9145C34.2963 7.92697 32.1795 7.9145 30.0645 7.9145H29.4124C29.3945 8.10515 29.366 8.27086 29.366 8.42231C29.366 10.2415 29.366 12.0608 29.366 13.8782C29.366 14.19 29.4355 14.37 29.7509 14.5108C30.4298 14.8119 30.8022 15.4017 31.1033 16.0663C33.4957 21.3048 35.8946 26.5398 38.3 31.7712C38.3838 31.9494 38.4782 32.1382 38.5834 32.3663C39.3353 31.9173 40.1193 31.7195 40.9692 31.9957C41.698 32.2344 42.1755 32.7512 42.5853 33.3695C46.5516 39.3278 50.5179 45.285 54.4842 51.241C54.7479 51.6384 55.0188 51.8664 55.507 51.788C55.7437 51.7585 55.9831 51.7585 56.2197 51.788C56.3227 51.7883 56.4245 51.8089 56.5195 51.8486C56.6144 51.8884 56.7006 51.9466 56.773 52.0198C56.8453 52.093 56.9025 52.1798 56.9412 52.2752C56.9799 52.3706 56.9993 52.4727 56.9984 52.5756C57.0051 52.6826 56.9907 52.7898 56.9559 52.8912C56.9211 52.9926 56.8666 53.0861 56.7956 53.1664C56.7246 53.2467 56.6384 53.3122 56.5421 53.3591C56.4457 53.406 56.341 53.4334 56.234 53.4398C56.0862 53.4487 55.9381 53.4487 55.7903 53.4398C37.6028 53.4564 19.417 53.4647 1.23301 53.4647C0.712725 53.4647 0.281526 53.3792 0 52.9035V52.3475ZM16.6795 51.7364H52.7826C51.9719 50.5158 51.2021 49.3577 50.4306 48.2013C47.3267 43.5436 44.2204 38.8836 41.1117 34.2212C40.5077 33.316 39.7861 33.3303 39.2177 34.239C38.9629 34.647 38.7241 35.0675 38.4604 35.4684C38.1415 35.9531 37.6978 36.0849 37.2773 35.8462C36.8568 35.6074 36.7427 35.121 37.026 34.5882C37.1151 34.4243 37.2363 34.2782 37.3094 34.1089C37.3615 33.9973 37.3704 33.8703 37.3343 33.7525C36.8318 32.6264 36.3151 31.5057 35.7788 30.3333C35.6362 30.4562 35.54 30.5346 35.4491 30.6201C34.1805 31.8068 32.8156 31.8068 31.5666 30.6201C30.9323 30.0161 30.2961 30.1373 29.9451 30.9408C29.448 32.0776 29.0311 33.2572 28.4555 34.3477C27.6359 35.9068 25.5494 36.1099 24.3734 34.7931C24.0028 34.3797 23.6945 33.9129 23.3649 33.4657C22.7591 32.6389 22.1604 31.8086 21.51 30.9159C20.8133 32.5338 20.1345 34.0519 19.5037 35.5914C18.8594 37.1848 17.711 38.5234 16.2341 39.4027C13.834 40.8762 11.4553 42.3854 9.05873 43.8572C8.21376 44.3681 7.52769 45.1042 7.07736 45.9829C6.16507 47.7416 5.22605 49.4877 4.30129 51.2393C4.21933 51.3925 4.14984 51.5528 4.04828 51.7738C7.31077 51.7738 10.4824 51.7738 13.654 51.7613C13.8667 51.7372 14.0666 51.6475 14.226 51.5047C15.1365 50.7421 16.0506 49.9849 16.929 49.1884C18.7286 47.5491 20.6886 46.2092 23.037 45.4466C25.4621 44.6555 27.8479 43.736 30.2552 42.8932C31.6617 42.4334 32.8497 41.4719 33.5925 40.192C34.0255 39.4579 34.4834 38.7363 34.9324 38.0146C35.3226 37.3857 35.7859 37.2128 36.2492 37.5086C36.7124 37.8044 36.7499 38.2659 36.3792 38.877C35.8999 39.6699 35.4189 40.4611 34.9235 41.2451C34.1003 42.544 33.0401 43.5971 31.5862 44.1512C29.4943 44.9495 27.415 45.7976 25.2732 46.4319C21.9794 47.3854 19.0082 49.2194 16.6795 51.7364ZM12.307 39.6931L12.3996 39.7697C12.5226 39.7038 12.6491 39.6468 12.7667 39.5737C13.6344 39.0392 14.4915 38.485 15.3681 37.9701C16.5423 37.2759 17.4515 36.21 17.9518 34.941C18.9104 32.6336 19.9117 30.3439 20.9078 28.0508C21.1679 27.4521 21.6205 27.2382 22.0909 27.4432C22.5346 27.6338 22.711 28.1256 22.4615 28.6708C22.3882 28.8057 22.3593 28.9602 22.3788 29.1125C22.3983 29.2647 22.4653 29.4069 22.5702 29.519C23.5217 30.8001 24.4518 32.0955 25.3801 33.3926C25.6296 33.749 25.8951 34.0376 26.3726 33.9699C26.8501 33.9022 27.0301 33.5548 27.1904 33.1574C27.5557 32.2469 27.9317 31.34 28.329 30.4437C28.4743 30.0832 28.6706 29.7454 28.9117 29.4406C29.1357 29.1799 29.4109 28.9681 29.7201 28.818C30.0293 28.668 30.366 28.583 30.7094 28.5683C31.0528 28.5536 31.3955 28.6095 31.7164 28.7326C32.0373 28.8556 32.3296 29.0432 32.5751 29.2838C33.3609 30.0179 33.6745 30.0125 34.4317 29.2588C34.504 29.1744 34.5832 29.0964 34.6687 29.0254C34.9894 28.8009 34.9716 28.5621 34.8148 28.22C33.058 24.4212 31.3207 20.6135 29.5745 16.8164C29.4913 16.6052 29.3798 16.4061 29.2431 16.2249C29.1565 16.1217 29.0477 16.0395 28.9247 15.9844C28.8018 15.9293 28.668 15.9029 28.5334 15.907C28.3987 15.9111 28.2668 15.9457 28.1474 16.0082C28.0281 16.0706 27.9245 16.1593 27.8444 16.2676C27.7086 16.4664 27.5967 16.6805 27.5112 16.9055C26.3542 19.5925 25.2014 22.2807 24.0527 24.97C23.9859 25.1428 23.9036 25.3092 23.8068 25.4671C23.6996 25.6362 23.5347 25.7608 23.3428 25.8178C23.1508 25.8748 22.9447 25.8603 22.7626 25.7771C22.5805 25.6938 22.4347 25.5475 22.3521 25.365C22.2696 25.1826 22.2559 24.9764 22.3136 24.7847C22.3778 24.5566 22.474 24.3375 22.5649 24.0916L20.7652 22.6661L12.307 39.6931ZM34.936 2.60292H29.3999V6.21465H34.9395C34.6527 5.77811 34.405 5.39502 34.1484 5.01905C34.0086 4.84363 33.9325 4.62596 33.9325 4.40166C33.9325 4.17735 34.0086 3.95968 34.1484 3.78426C34.4103 3.41008 34.6545 3.02521 34.9342 2.60292H34.936Z" fill="black"/>
</svg>
